<svg viewBox="-20 0 90 125" xmlns="http://www.w3.org/2000/svg" style="border: 1px solid #ccc; background: white;">
  
  <!-- Wall outline (65" wide × 96" tall) -->
  <rect x="0" y="0" width="65" height="96" 
        fill="none" stroke="#333" stroke-width="0.5"/>
  
  <!-- Vanity depth shown on right side (21.5" deep, 34.5" tall from bottom) -->
  <!-- This represents the vanity extending from the adjacent vanity wall -->
  <rect x="43.5" y="61.5" width="21.5" height="34.5" 
        fill="#d4b896" stroke="#666" stroke-width="0.4" opacity="0.6"/>
  <text x="54.25" y="78.75" font-family="Arial, sans-serif" font-size="2" text-anchor="middle" fill="#666" font-style="italic">Vanity</text>
  
  <!-- Mirror (side view: 1 5/8" thick × 30" tall, 2" gap above backsplash) -->
  <rect x="63.75" y="18.25" width="1.625" height="30" 
        fill="#d0f0ff" stroke="#333" stroke-width="0.3"/>
  <text x="67" y="33.25" font-family="Arial, sans-serif" font-size="1.5" text-anchor="start" fill="#006699" font-weight="bold">MIRROR</text>
  
  <!-- Backsplash (side view: 1.25" thick × 10" tall, at back of countertop) -->
  <rect x="63.75" y="50.25" width="1.25" height="10" 
        fill="#e0e0e0" stroke="#666" stroke-width="0.3"/>
  <text x="67" y="55.25" font-family="Arial, sans-serif" font-size="1.3" text-anchor="start" fill="#666" font-weight="bold">Backsplash</text>
  
  <!-- Countertop (side view: 22" deep with 0.5" overhang × 1.25" thick, on top of vanity) -->
  <rect x="43" y="60.25" width="22" height="1.25" 
        fill="#f5f5dc" stroke="#666" stroke-width="0.3"/>
  
  <!-- Sink (side view: 14 3/16" deep × 4.75" tall, centered on vanity, sitting on countertop) -->
  <rect x="47.16" y="55.5" width="14.19" height="4.75" 
        fill="#c0e0ff" stroke="#333" stroke-width="0.3"/>
  <text x="54.25" y="58.25" font-family="Arial, sans-serif" font-size="1.8" text-anchor="middle" fill="#006699" font-weight="bold">SINK</text>
  
  <!-- Faucet (7" tall, 2D side profile, mounted on top of sink) -->
  <!-- Faucet center is 2.125" (2 1/8") from the right side of sink -->
  <!-- Faucet base -->
  <rect x="58.475" y="55.3" width="1.5" height="0.2" fill="#999" stroke="#666" stroke-width="0.2"/>
  <!-- Faucet body/neck rising up -->
  <rect x="59.025" y="50.5" width="0.4" height="4.8" fill="#999" stroke="#666" stroke-width="0.2"/>
  <!-- Faucet top/handle assembly -->
  <rect x="58.725" y="48.5" width="1" height="2" fill="#999" stroke="#666" stroke-width="0.2"/>
  <!-- Faucet spout curving down -->
  <path d="M 59.425 52 L 59.425 51 Q 59.425 50.5 59.925 50.5 L 61.225 50.5 L 61.225 51 Q 61.225 51.5 61.025 52 L 61.025 54 Q 61.025 54.5 60.525 54.5 L 59.925 54.5" fill="#999" stroke="#666" stroke-width="0.2"/>
  <!-- Handle indicator -->
  <circle cx="59.225" cy="49.5" r="0.4" fill="#888" stroke="#666" stroke-width="0.15"/>
  <text x="59.225" y="47" font-family="Arial, sans-serif" font-size="1.3" text-anchor="middle" fill="#666" font-weight="bold">FAUCET</text>
  
  <!-- Wall dimensions -->
  
  <!-- Wall width dimension (bottom) -->
  <line x1="0" y1="102" x2="65" y2="102" stroke="#000" stroke-width="0.3"/>
  <line x1="0" y1="101" x2="0" y2="103" stroke="#000" stroke-width="0.3"/>
  <line x1="65" y1="101" x2="65" y2="103" stroke="#000" stroke-width="0.3"/>
  <text x="32.5" y="106" font-family="Arial, sans-serif" font-size="3" text-anchor="middle" fill="#000" font-weight="bold">65"</text>
  
  <!-- Wall height dimension (left side, leftmost) -->
  <line x1="-13" y1="0" x2="-13" y2="96" stroke="#000" stroke-width="0.3"/>
  <line x1="-12" y1="0" x2="-14" y2="0" stroke="#000" stroke-width="0.3"/>
  <line x1="-12" y1="96" x2="-14" y2="96" stroke="#000" stroke-width="0.3"/>
  <text x="-16" y="48" font-family="Arial, sans-serif" font-size="3" text-anchor="middle" fill="#000" font-weight="bold" transform="rotate(-90 -16 48)">96" (8')</text>
  
  <!-- Vanity depth dimension (bottom right, with diagonal line) -->
  <line x1="43.5" y1="99" x2="65" y2="99" stroke="#000" stroke-width="0.3"/>
  <line x1="43.5" y1="98" x2="43.5" y2="100" stroke="#000" stroke-width="0.3"/>
  <line x1="65" y1="98" x2="65" y2="100" stroke="#000" stroke-width="0.3"/>
  <!-- Diagonal line connecting to vanity -->
  <line x1="43.5" y1="96" x2="43.5" y2="99" stroke="#000" stroke-width="0.2" stroke-dasharray="1,1"/>
  <text x="54.25" y="98" font-family="Arial, sans-serif" font-size="2" text-anchor="middle" fill="#000" font-weight="bold">21.5"</text>
  
  <!-- Vanity height dimension (right side) -->
  <line x1="68" y1="61.5" x2="68" y2="96" stroke="#000" stroke-width="0.3"/>
  <line x1="67" y1="61.5" x2="69" y2="61.5" stroke="#000" stroke-width="0.3"/>
  <line x1="67" y1="96" x2="69" y2="96" stroke="#000" stroke-width="0.3"/>
  <text x="73" y="78.75" font-family="Arial, sans-serif" font-size="2.5" text-anchor="middle" fill="#000" font-weight="bold" transform="rotate(-90 73 78.75)">34.5"</text>
  
  <!-- Sink depth dimension (bottom, with diagonal lines) -->
  <line x1="47.16" y1="64" x2="61.35" y2="64" stroke="#000" stroke-width="0.3"/>
  <line x1="47.16" y1="63" x2="47.16" y2="65" stroke="#000" stroke-width="0.3"/>
  <line x1="61.35" y1="63" x2="61.35" y2="65" stroke="#000" stroke-width="0.3"/>
  <!-- Diagonal lines connecting to sink -->
  <line x1="47.16" y1="60.25" x2="47.16" y2="64" stroke="#000" stroke-width="0.2" stroke-dasharray="1,1"/>
  <line x1="61.35" y1="60.25" x2="61.35" y2="64" stroke="#000" stroke-width="0.2" stroke-dasharray="1,1"/>
  <text x="54.25" y="62.5" font-family="Arial, sans-serif" font-size="2" text-anchor="middle" fill="#000" font-weight="bold">14 3/16"</text>
  
  <!-- Sink height dimension (left side, with diagonal line) -->
  <line x1="44" y1="55.5" x2="44" y2="60.25" stroke="#000" stroke-width="0.3"/>
  <line x1="43" y1="55.5" x2="45" y2="55.5" stroke="#000" stroke-width="0.3"/>
  <line x1="43" y1="60.25" x2="45" y2="60.25" stroke="#000" stroke-width="0.3"/>
  <!-- Diagonal line connecting to sink -->
  <line x1="43" y1="55.5" x2="44" y2="55.5" stroke="#000" stroke-width="0.2" stroke-dasharray="1,1"/>
  <text x="41" y="57.875" font-family="Arial, sans-serif" font-size="2" text-anchor="middle" fill="#000" font-weight="bold" transform="rotate(-90 41 57.875)">4.75"</text>
  
  <!-- Countertop thickness dimension (left side, with diagonal line) -->
  <line x1="40" y1="60.25" x2="40" y2="61.5" stroke="#000" stroke-width="0.25"/>
  <line x1="39.5" y1="60.25" x2="40.5" y2="60.25" stroke="#000" stroke-width="0.25"/>
  <line x1="39.5" y1="61.5" x2="40.5" y2="61.5" stroke="#000" stroke-width="0.25"/>
  <!-- Diagonal line connecting to countertop -->
  <line x1="43" y1="60.875" x2="40" y2="60.875" stroke="#000" stroke-width="0.2" stroke-dasharray="1,1"/>
  <text x="37.5" y="60.875" font-family="Arial, sans-serif" font-size="1.8" text-anchor="middle" fill="#000" font-weight="bold" transform="rotate(-90 37.5 60.875)">1.25"</text>
  
  <!-- Countertop overhang dimension (top, with arrow) -->
  <line x1="43" y1="58" x2="43.5" y2="58" stroke="#000" stroke-width="0.25"/>
  <line x1="43" y1="57.5" x2="43" y2="58.5" stroke="#000" stroke-width="0.25"/>
  <line x1="43.5" y1="57.5" x2="43.5" y2="58.5" stroke="#000" stroke-width="0.25"/>
  <text x="43.25" y="56.5" font-family="Arial, sans-serif" font-size="1.5" text-anchor="middle" fill="#000" font-weight="bold">0.5"</text>
  
  <!-- Backsplash height dimension (right side, with diagonal line) -->
  <line x1="67" y1="50.25" x2="67" y2="60.25" stroke="#000" stroke-width="0.3"/>
  <line x1="66.5" y1="50.25" x2="67.5" y2="50.25" stroke="#000" stroke-width="0.3"/>
  <line x1="66.5" y1="60.25" x2="67.5" y2="60.25" stroke="#000" stroke-width="0.3"/>
  <!-- Diagonal lines connecting to backsplash -->
  <line x1="65" y1="50.25" x2="67" y2="50.25" stroke="#000" stroke-width="0.2" stroke-dasharray="1,1"/>
  <line x1="65" y1="60.25" x2="67" y2="60.25" stroke="#000" stroke-width="0.2" stroke-dasharray="1,1"/>
  <text x="70" y="55.25" font-family="Arial, sans-serif" font-size="2.2" text-anchor="middle" fill="#000" font-weight="bold" transform="rotate(-90 70 55.25)">10"</text>
  
  <!-- Backsplash thickness dimension (bottom, with diagonal line) -->
  <line x1="63.75" y1="64" x2="65" y2="64" stroke="#000" stroke-width="0.25"/>
  <line x1="63.75" y1="63.5" x2="63.75" y2="64.5" stroke="#000" stroke-width="0.25"/>
  <line x1="65" y1="63.5" x2="65" y2="64.5" stroke="#000" stroke-width="0.25"/>
  <!-- Diagonal line connecting to backsplash -->
  <line x1="64.375" y1="60.25" x2="64.375" y2="64" stroke="#000" stroke-width="0.2" stroke-dasharray="1,1"/>
  <text x="64.375" y="62.5" font-family="Arial, sans-serif" font-size="1.5" text-anchor="middle" fill="#000" font-weight="bold">1.25"</text>
  
  <!-- Faucet position dimension (from right side of sink, at top) -->
  <line x1="59.225" y1="53" x2="61.35" y2="53" stroke="#000" stroke-width="0.25"/>
  <line x1="59.225" y1="52.5" x2="59.225" y2="53.5" stroke="#000" stroke-width="0.25"/>
  <line x1="61.35" y1="52.5" x2="61.35" y2="53.5" stroke="#000" stroke-width="0.25"/>
  <text x="60.2875" y="51.5" font-family="Arial, sans-serif" font-size="1.5" text-anchor="middle" fill="#000" font-weight="bold">2 1/8"</text>
  
  <!-- Faucet height dimension (left side, with diagonal line) -->
  <line x1="57" y1="48.5" x2="57" y2="55.5" stroke="#000" stroke-width="0.25"/>
  <line x1="56.5" y1="48.5" x2="57.5" y2="48.5" stroke="#000" stroke-width="0.25"/>
  <line x1="56.5" y1="55.5" x2="57.5" y2="55.5" stroke="#000" stroke-width="0.25"/>
  <!-- Diagonal line connecting to faucet -->
  <line x1="57" y1="52" x2="58.475" y2="52" stroke="#000" stroke-width="0.2" stroke-dasharray="1,1"/>
  <text x="55.5" y="52" font-family="Arial, sans-serif" font-size="1.8" text-anchor="middle" fill="#000" font-weight="bold" transform="rotate(-90 55.5 52)">7"</text>
  
  <!-- Mirror height dimension (right side, with diagonal line) -->
  <line x1="68" y1="18.25" x2="68" y2="48.25" stroke="#000" stroke-width="0.3"/>
  <line x1="67" y1="18.25" x2="69" y2="18.25" stroke="#000" stroke-width="0.3"/>
  <line x1="67" y1="48.25" x2="69" y2="48.25" stroke="#000" stroke-width="0.3"/>
  <!-- Diagonal lines connecting to mirror -->
  <line x1="65.375" y1="18.25" x2="68" y2="18.25" stroke="#000" stroke-width="0.2" stroke-dasharray="1,1"/>
  <line x1="65.375" y1="48.25" x2="68" y2="48.25" stroke="#000" stroke-width="0.2" stroke-dasharray="1,1"/>
  <text x="72" y="33.25" font-family="Arial, sans-serif" font-size="2.5" text-anchor="middle" fill="#000" font-weight="bold" transform="rotate(-90 72 33.25)">30"</text>
  
  <!-- Mirror thickness dimension (bottom, with diagonal line) -->
  <line x1="63.75" y1="50" x2="65.375" y2="50" stroke="#000" stroke-width="0.25"/>
  <line x1="63.75" y1="49.5" x2="63.75" y2="50.5" stroke="#000" stroke-width="0.25"/>
  <line x1="65.375" y1="49.5" x2="65.375" y2="50.5" stroke="#000" stroke-width="0.25"/>
  <!-- Diagonal line connecting to mirror -->
  <line x1="64.5625" y1="48.25" x2="64.5625" y2="50" stroke="#000" stroke-width="0.2" stroke-dasharray="1,1"/>
  <text x="64.5625" y="48.5" font-family="Arial, sans-serif" font-size="1.5" text-anchor="middle" fill="#000" font-weight="bold">1 5/8"</text>
  
  <!-- Gap between mirror and backsplash (right side, with lines) -->
  <line x1="67" y1="48.25" x2="67" y2="50.25" stroke="#000" stroke-width="0.25"/>
  <line x1="66.5" y1="48.25" x2="67.5" y2="48.25" stroke="#000" stroke-width="0.25"/>
  <line x1="66.5" y1="50.25" x2="67.5" y2="50.25" stroke="#000" stroke-width="0.25"/>
  <text x="69.5" y="49.25" font-family="Arial, sans-serif" font-size="1.5" text-anchor="middle" fill="#000" font-weight="bold" transform="rotate(-90 69.5 49.25)">2"</text>

</svg>

