<svg viewBox="-20 0 90 125" xmlns="http://www.w3.org/2000/svg" style="border: 1px solid #ccc; background: white;">
  
  <!-- Wall outline (65" wide × 96" tall) -->
  <rect x="0" y="0" width="65" height="96" 
        fill="none" stroke="#333" stroke-width="0.5"/>
  
  <!-- Vanity depth shown on right side (21.5" deep, 34.5" tall from bottom) -->
  <!-- This represents the vanity extending from the adjacent vanity wall -->
  <rect x="43.5" y="61.5" width="21.5" height="34.5" 
        fill="#d4b896" stroke="#666" stroke-width="0.4" opacity="0.6"/>
  <text x="54.25" y="78.75" font-family="Arial, sans-serif" font-size="2" text-anchor="middle" fill="#666" font-style="italic">Vanity</text>
  
  <!-- Wall dimensions -->
  
  <!-- Wall width dimension (bottom) -->
  <line x1="0" y1="102" x2="65" y2="102" stroke="#000" stroke-width="0.3"/>
  <line x1="0" y1="101" x2="0" y2="103" stroke="#000" stroke-width="0.3"/>
  <line x1="65" y1="101" x2="65" y2="103" stroke="#000" stroke-width="0.3"/>
  <text x="32.5" y="106" font-family="Arial, sans-serif" font-size="3" text-anchor="middle" fill="#000" font-weight="bold">65"</text>
  
  <!-- Wall height dimension (left side, leftmost) -->
  <line x1="-13" y1="0" x2="-13" y2="96" stroke="#000" stroke-width="0.3"/>
  <line x1="-12" y1="0" x2="-14" y2="0" stroke="#000" stroke-width="0.3"/>
  <line x1="-12" y1="96" x2="-14" y2="96" stroke="#000" stroke-width="0.3"/>
  <text x="-16" y="48" font-family="Arial, sans-serif" font-size="3" text-anchor="middle" fill="#000" font-weight="bold" transform="rotate(-90 -16 48)">96" (8')</text>
  
  <!-- Vanity depth dimension (bottom right, with diagonal line) -->
  <line x1="43.5" y1="99" x2="65" y2="99" stroke="#000" stroke-width="0.3"/>
  <line x1="43.5" y1="98" x2="43.5" y2="100" stroke="#000" stroke-width="0.3"/>
  <line x1="65" y1="98" x2="65" y2="100" stroke="#000" stroke-width="0.3"/>
  <!-- Diagonal line connecting to vanity -->
  <line x1="43.5" y1="96" x2="43.5" y2="99" stroke="#000" stroke-width="0.2" stroke-dasharray="1,1"/>
  <text x="54.25" y="98" font-family="Arial, sans-serif" font-size="2" text-anchor="middle" fill="#000" font-weight="bold">21.5"</text>
  
  <!-- Vanity height dimension (right side) -->
  <line x1="68" y1="61.5" x2="68" y2="96" stroke="#000" stroke-width="0.3"/>
  <line x1="67" y1="61.5" x2="69" y2="61.5" stroke="#000" stroke-width="0.3"/>
  <line x1="67" y1="96" x2="69" y2="96" stroke="#000" stroke-width="0.3"/>
  <text x="73" y="78.75" font-family="Arial, sans-serif" font-size="2.5" text-anchor="middle" fill="#000" font-weight="bold" transform="rotate(-90 73 78.75)">34.5"</text>
  
</svg>

