<svg viewBox="-15 0 70 125" xmlns="http://www.w3.org/2000/svg" style="border: 1px solid #ccc; background: white;">
  <!-- Wall outline -->
  <rect x="0" y="0" width="42" height="96" 
        fill="none" stroke="#333" stroke-width="0.5"/>
  
  <!-- Vanity (42" wide, 34.5" tall, aligned to left) -->
  <rect x="0" y="61.5" width="42" height="34.5" 
        fill="#e8e8e8" stroke="#666" stroke-width="0.3"/>
  
  <!-- Left section (small drawers) - 13.5" wide -->
  <rect x="2" y="61.5" width="13.5" height="34.5" 
        fill="#d0d0d0" stroke="#555" stroke-width="0.25"/>
  
  <!-- Right section (large drawers) - 22.5" wide -->
  <rect x="17.5" y="61.5" width="22.5" height="34.5" 
        fill="#d0d0d0" stroke="#555" stroke-width="0.25"/>
  
  <!-- Mirror (40" wide × 30" tall, 2" gap above backsplash, centered over vanity) -->
  <rect x="1" y="18.25" width="40" height="30" 
        fill="#d0f0ff" stroke="#333" stroke-width="0.4"/>
  <!-- Mirror shine effect -->
  <rect x="2" y="19" width="5" height="10" 
        fill="#ffffff" opacity="0.3" stroke="none"/>
  
  <!-- Backsplash (42" wide × 10" tall, on top of countertop) -->
  <rect x="0" y="50.25" width="42" height="10" 
        fill="#d5e8d4" stroke="#666" stroke-width="0.3"/>
  
  <!-- Left side backsplash (1.25" wide × 10" tall, on left edge) -->
  <rect x="0" y="50.25" width="1.25" height="10" 
        fill="#d5e8d4" stroke="#666" stroke-width="0.3"/>
  
  <!-- Receptacle (4" wide × 2" tall, in backsplash, centered vertically and horizontally over small drawers) -->
  <rect x="6.75" y="54.25" width="4" height="2" 
        fill="#f8f8f8" stroke="#333" stroke-width="0.3"/>
  <!-- Receptacle outlets -->
  <ellipse cx="7.75" cy="55.25" rx="0.5" ry="0.3" fill="#333"/>
  <ellipse cx="9.75" cy="55.25" rx="0.5" ry="0.3" fill="#333"/>
  <line x1="7.75" y1="55.25" x2="7.25" y2="55.25" stroke="#333" stroke-width="0.1"/>
  <line x1="9.75" y1="55.25" x2="10.25" y2="55.25" stroke="#333" stroke-width="0.1"/>
  
  <!-- Countertop (42" wide × 1.25" thick) -->
  <rect x="0" y="60.25" width="42" height="1.25" 
        fill="#f5f5dc" stroke="#666" stroke-width="0.3"/>
  
  <!-- Sink (20.88" wide × 4.75" tall, centered above large drawers, sitting on countertop) -->
  <rect x="18.31" y="55.5" width="20.88" height="4.75" 
        fill="#c0e0ff" stroke="#333" stroke-width="0.3"/>
  
  <!-- Faucet (7" tall, 2D side profile, mounted on top of sink) -->
  <!-- Faucet base -->
  <rect x="28" y="55.3" width="1.5" height="0.2" fill="#999" stroke="#666" stroke-width="0.2"/>
  <!-- Faucet body/neck rising up -->
  <rect x="28.55" y="50.5" width="0.4" height="4.8" fill="#999" stroke="#666" stroke-width="0.2"/>
  <!-- Faucet top/handle assembly -->
  <rect x="28.25" y="48.5" width="1" height="2" fill="#999" stroke="#666" stroke-width="0.2"/>
  <!-- Faucet spout curving down -->
  <path d="M 28.95 52 L 28.95 51 Q 28.95 50.5 29.45 50.5 L 30.75 50.5 L 30.75 51 Q 30.75 51.5 30.55 52 L 30.55 54 Q 30.55 54.5 30.05 54.5 L 29.45 54.5" fill="#999" stroke="#666" stroke-width="0.2"/>
  <!-- Handle indicator -->
  <circle cx="28.75" cy="49.5" r="0.4" fill="#888" stroke="#666" stroke-width="0.15"/>
  
  <!-- Section labels -->
  <text x="8.75" y="78.75" font-family="Arial, sans-serif" font-size="2" text-anchor="middle" fill="#333">Small Drawers</text>
  <text x="28.75" y="78.75" font-family="Arial, sans-serif" font-size="2" text-anchor="middle" fill="#333">Large Drawers</text>
  
  <!-- Wall height dimension (left side, leftmost) -->
  <line x1="-13" y1="0" x2="-13" y2="96" stroke="#000" stroke-width="0.3"/>
  <line x1="-12" y1="0" x2="-14" y2="0" stroke="#000" stroke-width="0.3"/>
  <line x1="-12" y1="96" x2="-14" y2="96" stroke="#000" stroke-width="0.3"/>
  <text x="-16" y="48" font-family="Arial, sans-serif" font-size="3" text-anchor="middle" fill="#000" font-weight="bold" transform="rotate(-90 -16 48)">96" (8')</text>
  
  <!-- Backsplash height dimension (left side, with diagonal lines) -->
  <line x1="-8" y1="52" x2="-8" y2="58" stroke="#000" stroke-width="0.3"/>
  <line x1="-9" y1="52" x2="-7" y2="52" stroke="#000" stroke-width="0.3"/>
  <line x1="-9" y1="58" x2="-7" y2="58" stroke="#000" stroke-width="0.3"/>
  <!-- Diagonal lines connecting to backsplash -->
  <line x1="0" y1="50.25" x2="-8" y2="52" stroke="#000" stroke-width="0.2" stroke-dasharray="1,1"/>
  <line x1="0" y1="60.25" x2="-8" y2="58" stroke="#000" stroke-width="0.2" stroke-dasharray="1,1"/>
  <text x="-11" y="55" font-family="Arial, sans-serif" font-size="2.2" text-anchor="middle" fill="#000" font-weight="bold" transform="rotate(-90 -11 55)">10"</text>
  
  <!-- Left side backsplash width dimension (top, with diagonal line) -->
  <line x1="0" y1="47" x2="1.25" y2="47" stroke="#000" stroke-width="0.25"/>
  <line x1="0" y1="46.5" x2="0" y2="47.5" stroke="#000" stroke-width="0.25"/>
  <line x1="1.25" y1="46.5" x2="1.25" y2="47.5" stroke="#000" stroke-width="0.25"/>
  <!-- Diagonal line connecting to left backsplash -->
  <line x1="0.625" y1="47" x2="0.625" y2="50.25" stroke="#000" stroke-width="0.2" stroke-dasharray="1,1"/>
  <text x="0.625" y="45.5" font-family="Arial, sans-serif" font-size="1.5" text-anchor="middle" fill="#000" font-weight="bold">1.25"</text>
  
  <!-- Faucet height dimension (just right of faucet, with diagonal lines) -->
  <line x1="32.5" y1="48.5" x2="32.5" y2="55.5" stroke="#000" stroke-width="0.25"/>
  <line x1="32" y1="48.5" x2="33" y2="48.5" stroke="#000" stroke-width="0.25"/>
  <line x1="32" y1="55.5" x2="33" y2="55.5" stroke="#000" stroke-width="0.25"/>
  <!-- Diagonal line connecting to faucet top -->
  <line x1="29.25" y1="48.5" x2="32.5" y2="48.5" stroke="#000" stroke-width="0.15" stroke-dasharray="1,1"/>
  <!-- Diagonal line connecting to faucet base on sink -->
  <line x1="29.25" y1="55.5" x2="32.5" y2="55.5" stroke="#000" stroke-width="0.15" stroke-dasharray="1,1"/>
  <text x="34.5" y="52" font-family="Arial, sans-serif" font-size="2" text-anchor="middle" fill="#000" font-weight="bold" transform="rotate(-90 34.5 52)">7"</text>
  
  <!-- Mirror height dimension (left side) -->
  <line x1="-3" y1="18.25" x2="-3" y2="48.25" stroke="#000" stroke-width="0.3"/>
  <line x1="-2" y1="18.25" x2="-4" y2="18.25" stroke="#000" stroke-width="0.3"/>
  <line x1="-2" y1="48.25" x2="-4" y2="48.25" stroke="#000" stroke-width="0.3"/>
  <text x="-6" y="33.25" font-family="Arial, sans-serif" font-size="2.5" text-anchor="middle" fill="#000" font-weight="bold" transform="rotate(-90 -6 33.25)">30"</text>
  
  <!-- Mirror width dimension (top) -->
  <line x1="1" y1="15" x2="41" y2="15" stroke="#000" stroke-width="0.3"/>
  <line x1="1" y1="14" x2="1" y2="16" stroke="#000" stroke-width="0.3"/>
  <line x1="41" y1="14" x2="41" y2="16" stroke="#000" stroke-width="0.3"/>
  <text x="21" y="13" font-family="Arial, sans-serif" font-size="2.5" text-anchor="middle" fill="#000" font-weight="bold">40"</text>
  
  <!-- Gap between backsplash and mirror (left side, with diagonal lines) -->
  <line x1="-8" y1="48.5" x2="-8" y2="50" stroke="#000" stroke-width="0.3"/>
  <line x1="-9" y1="48.5" x2="-7" y2="48.5" stroke="#000" stroke-width="0.3"/>
  <line x1="-9" y1="50" x2="-7" y2="50" stroke="#000" stroke-width="0.3"/>
  <!-- Diagonal lines connecting to gap -->
  <line x1="1" y1="48.25" x2="-8" y2="48.5" stroke="#000" stroke-width="0.2" stroke-dasharray="1,1"/>
  <line x1="0" y1="50.25" x2="-8" y2="50" stroke="#000" stroke-width="0.2" stroke-dasharray="1,1"/>
  <text x="-11" y="49.25" font-family="Arial, sans-serif" font-size="2" text-anchor="middle" fill="#666" transform="rotate(-90 -11 49.25)">2"</text>
  
  <!-- Receptacle dimensions -->
  <!-- Receptacle width (top) -->
  <line x1="6.75" y1="52.5" x2="10.75" y2="52.5" stroke="#000" stroke-width="0.3"/>
  <line x1="6.75" y1="51.5" x2="6.75" y2="53.5" stroke="#000" stroke-width="0.3"/>
  <line x1="10.75" y1="51.5" x2="10.75" y2="53.5" stroke="#000" stroke-width="0.3"/>
  <text x="8.75" y="50.5" font-family="Arial, sans-serif" font-size="2" text-anchor="middle" fill="#000" font-weight="bold">4"</text>
  
  <!-- Receptacle height (right side) -->
  <line x1="45" y1="54.25" x2="45" y2="56.25" stroke="#000" stroke-width="0.3"/>
  <line x1="44" y1="54.25" x2="46" y2="54.25" stroke="#000" stroke-width="0.3"/>
  <line x1="44" y1="56.25" x2="46" y2="56.25" stroke="#000" stroke-width="0.3"/>
  <text x="50" y="55.25" font-family="Arial, sans-serif" font-size="2" text-anchor="middle" fill="#000" font-weight="bold" transform="rotate(-90 50 55.25)">2"</text>
  
  <!-- Vanity height dimension (right side) -->
  <line x1="45" y1="61.5" x2="45" y2="96" stroke="#000" stroke-width="0.3"/>
  <line x1="44" y1="61.5" x2="46" y2="61.5" stroke="#000" stroke-width="0.3"/>
  <line x1="44" y1="96" x2="46" y2="96" stroke="#000" stroke-width="0.3"/>
  <text x="50" y="78.75" font-family="Arial, sans-serif" font-size="2.5" text-anchor="middle" fill="#000" font-weight="bold" transform="rotate(-90 50 78.75)">34.5"</text>
  
  <!-- Sink height dimension (right side, above countertop thickness) -->
  <line x1="45" y1="55.5" x2="45" y2="60.25" stroke="#000" stroke-width="0.3"/>
  <line x1="44" y1="55.5" x2="46" y2="55.5" stroke="#000" stroke-width="0.3"/>
  <line x1="44" y1="60.25" x2="46" y2="60.25" stroke="#000" stroke-width="0.3"/>
  <text x="50" y="57.875" font-family="Arial, sans-serif" font-size="2.2" text-anchor="middle" fill="#000" font-weight="bold" transform="rotate(-90 50 57.875)">4.75"</text>
  
  <!-- Countertop thickness dimension (right side, lower position with diagonal lines) -->
  <line x1="45" y1="62.5" x2="45" y2="64" stroke="#000" stroke-width="0.3"/>
  <line x1="44" y1="62.5" x2="46" y2="62.5" stroke="#000" stroke-width="0.3"/>
  <line x1="44" y1="64" x2="46" y2="64" stroke="#000" stroke-width="0.3"/>
  <!-- Diagonal lines connecting to countertop -->
  <line x1="42" y1="60.25" x2="45" y2="62.5" stroke="#000" stroke-width="0.2" stroke-dasharray="1,1"/>
  <line x1="42" y1="61.5" x2="45" y2="64" stroke="#000" stroke-width="0.2" stroke-dasharray="1,1"/>
  <text x="50" y="63.25" font-family="Arial, sans-serif" font-size="2.2" text-anchor="middle" fill="#000" font-weight="bold" transform="rotate(-90 50 63.25)">1.25"</text>
  
  <!-- Floor line -->
  <line x1="0" y1="96" x2="42" y2="96" stroke="#333" stroke-width="0.5"/>
  <text x="45" y="99" font-family="Arial, sans-serif" font-size="2" text-anchor="start" fill="#666">Floor</text>
  
  <!-- Width dimensions below vanity -->
  <!-- Small and large drawers on the same line -->
  <line x1="2" y1="100" x2="15.5" y2="100" stroke="#000" stroke-width="0.3"/>
  <line x1="2" y1="99" x2="2" y2="101" stroke="#000" stroke-width="0.3"/>
  <line x1="15.5" y1="99" x2="15.5" y2="101" stroke="#000" stroke-width="0.3"/>
  <text x="8.75" y="103" font-family="Arial, sans-serif" font-size="2.2" text-anchor="middle" fill="#000" font-weight="bold">13.5"</text>
  
  <line x1="17.5" y1="100" x2="40" y2="100" stroke="#000" stroke-width="0.3"/>
  <line x1="17.5" y1="99" x2="17.5" y2="101" stroke="#000" stroke-width="0.3"/>
  <line x1="40" y1="99" x2="40" y2="101" stroke="#000" stroke-width="0.3"/>
  <text x="28.75" y="103" font-family="Arial, sans-serif" font-size="2.2" text-anchor="middle" fill="#000" font-weight="bold">22.5"</text>
  
  <!-- Gaps -->
  <line x1="0" y1="105" x2="2" y2="105" stroke="#666" stroke-width="0.25"/>
  <line x1="0" y1="104" x2="0" y2="106" stroke="#666" stroke-width="0.25"/>
  <line x1="2" y1="104" x2="2" y2="106" stroke="#666" stroke-width="0.25"/>
  <text x="1" y="108" font-family="Arial, sans-serif" font-size="2" text-anchor="middle" fill="#666">2"</text>
  
  <line x1="15.5" y1="105" x2="17.5" y2="105" stroke="#666" stroke-width="0.25"/>
  <line x1="15.5" y1="104" x2="15.5" y2="106" stroke="#666" stroke-width="0.25"/>
  <line x1="17.5" y1="104" x2="17.5" y2="106" stroke="#666" stroke-width="0.25"/>
  <text x="16.5" y="108" font-family="Arial, sans-serif" font-size="2" text-anchor="middle" fill="#666">2"</text>
  
  <line x1="40" y1="105" x2="42" y2="105" stroke="#666" stroke-width="0.25"/>
  <line x1="40" y1="104" x2="40" y2="106" stroke="#666" stroke-width="0.25"/>
  <line x1="42" y1="104" x2="42" y2="106" stroke="#666" stroke-width="0.25"/>
  <text x="41" y="108" font-family="Arial, sans-serif" font-size="2" text-anchor="middle" fill="#666">2"</text>
  
  <!-- Overall vanity width -->
  <line x1="0" y1="110" x2="42" y2="110" stroke="#000" stroke-width="0.3"/>
  <line x1="0" y1="109" x2="0" y2="111" stroke="#000" stroke-width="0.3"/>
  <line x1="42" y1="109" x2="42" y2="111" stroke="#000" stroke-width="0.3"/>
  <text x="21" y="113" font-family="Arial, sans-serif" font-size="2.5" text-anchor="middle" fill="#000" font-weight="bold">42"</text>
  
  <!-- Sink width dimension (below countertop, over large drawers) -->
  <line x1="18.31" y1="63" x2="39.19" y2="63" stroke="#000" stroke-width="0.3"/>
  <line x1="18.31" y1="62" x2="18.31" y2="64" stroke="#000" stroke-width="0.3"/>
  <line x1="39.19" y1="62" x2="39.19" y2="64" stroke="#000" stroke-width="0.3"/>
  <text x="28.75" y="66" font-family="Arial, sans-serif" font-size="2.2" text-anchor="middle" fill="#000" font-weight="bold">20.88"</text>
  
  <!-- Option label -->
  <text x="21" y="120" font-family="Arial, sans-serif" font-size="3" text-anchor="middle" fill="#666" font-style="italic">Front View</text>
  <text x="21" y="124" font-family="Arial, sans-serif" font-size="4" text-anchor="middle" fill="#0066cc" font-weight="bold">Option 8</text>
</svg>

