<svg viewBox="-10 -10 75 45" xmlns="http://www.w3.org/2000/svg" style="border: 1px solid #ccc; background: white;">
  
  <!-- Walls (corner configuration) -->
  <!-- Wall (left side, 65" long but we only show the vanity area) -->
  <line x1="0" y1="0" x2="0" y2="30" stroke="#333" stroke-width="0.8"/>
  <text x="-2" y="15" font-family="Arial, sans-serif" font-size="1.5" text-anchor="middle" fill="#666" transform="rotate(-90 -2 15)">Wall</text>
  
  <!-- Vanity wall (back side, 42" long) -->
  <line x1="0" y1="0" x2="42" y2="0" stroke="#333" stroke-width="0.8"/>
  <text x="21" y="-2" font-family="Arial, sans-serif" font-size="1.5" text-anchor="middle" fill="#666">Vanity Wall</text>
  
  <!-- Vanity body (42" wide × 21.5" deep, against walls) -->
  <rect x="0" y="0" width="42" height="21.5" 
        fill="#d4b896" stroke="#666" stroke-width="0.4" opacity="0.6"/>
  
  <!-- Drawer sections within vanity -->
  <!-- Large drawers section (left, 22.5" wide, 2" from left edge) -->
  <rect x="2" y="1" width="22.5" height="20.5" 
        fill="#c4a886" stroke="#666" stroke-width="0.3" opacity="0.8"/>
  <text x="13.25" y="11" font-family="Arial, sans-serif" font-size="2" text-anchor="middle" fill="#333">Large Drawers</text>
  
  <!-- Small drawers section (right, 13.5" wide, 2" from right edge) -->
  <rect x="26.5" y="1" width="13.5" height="20.5" 
        fill="#c4a886" stroke="#666" stroke-width="0.3" opacity="0.8"/>
  <text x="33.25" y="11" font-family="Arial, sans-serif" font-size="2" text-anchor="middle" fill="#333">Small Drawers</text>
  
  <!-- Countertop (42" wide × 22" deep with 0.5" overhang to the left) -->
  <rect x="-0.5" y="0" width="42" height="22" 
        fill="#f5f5dc" stroke="#666" stroke-width="0.4" fill-opacity="0.5"/>
  <text x="21" y="21" font-family="Arial, sans-serif" font-size="1.5" text-anchor="middle" fill="#666" font-style="italic">Countertop</text>
  
  <!-- Backsplash (1.25" thick × 42" wide, at back against vanity wall) -->
  <rect x="0" y="0" width="42" height="1.25" 
        fill="#e0e0e0" stroke="#666" stroke-width="0.3"/>
  <text x="21" y="0.8" font-family="Arial, sans-serif" font-size="1" text-anchor="middle" fill="#555">Backsplash</text>
  
  <!-- Left side backsplash (1.25" thick × 22" deep, along left wall) -->
  <rect x="0" y="0" width="1.25" height="22" 
        fill="#e0e0e0" stroke="#666" stroke-width="0.3"/>
  <text x="0.625" y="11" font-family="Arial, sans-serif" font-size="0.8" text-anchor="middle" fill="#555" transform="rotate(-90 0.625 11)">Backsplash</text>
  
  <!-- Sink (20.88" W × 14 3/16" D, centered over large drawers) -->
  <!-- Large drawers center: 2 + 22.5/2 = 13.25" -->
  <!-- Sink left edge: 13.25 - 20.88/2 = 2.81" -->
  <rect x="2.81" y="3.875" width="20.88" height="14.1875" 
        fill="#c0e0ff" stroke="#333" stroke-width="0.4"/>
  <text x="13.25" y="11.5" font-family="Arial, sans-serif" font-size="2" text-anchor="middle" fill="#006699" font-weight="bold">SINK</text>
  
  <!-- Faucet hole (small circle, centered horizontally, 2.125" from back edge of sink) -->
  <!-- Sink horizontal center: 2.81 + 20.88/2 = 13.25" -->
  <!-- Sink top (back) edge: 3.875" -->
  <!-- Faucet center: 3.875 + 2.125 = 6.0" from front -->
  <circle cx="13.25" cy="6.0" r="0.5" fill="#999" stroke="#666" stroke-width="0.2"/>
  <text x="13.25" y="4.5" font-family="Arial, sans-serif" font-size="1" text-anchor="middle" fill="#666">Faucet</text>
  
  <!-- Receptacle position indicator (4" W × 2" D in backsplash, centered over small drawers) -->
  <rect x="31.25" y="0.25" width="4" height="0.75" 
        fill="#f8f8f8" stroke="#333" stroke-width="0.2"/>
  <text x="33.25" y="-0.5" font-family="Arial, sans-serif" font-size="0.8" text-anchor="middle" fill="#333">Receptacle</text>
  
  <!-- Dimensions -->
  
  <!-- Vanity width (bottom) -->
  <line x1="0" y1="25" x2="42" y2="25" stroke="#000" stroke-width="0.3"/>
  <line x1="0" y1="24.5" x2="0" y2="25.5" stroke="#000" stroke-width="0.3"/>
  <line x1="42" y1="24.5" x2="42" y2="25.5" stroke="#000" stroke-width="0.3"/>
  <text x="21" y="27" font-family="Arial, sans-serif" font-size="2.5" text-anchor="middle" fill="#000" font-weight="bold">42"</text>
  
  <!-- Vanity depth (right side) -->
  <line x1="45" y1="0" x2="45" y2="21.5" stroke="#000" stroke-width="0.3"/>
  <line x1="44.5" y1="0" x2="45.5" y2="0" stroke="#000" stroke-width="0.3"/>
  <line x1="44.5" y1="21.5" x2="45.5" y2="21.5" stroke="#000" stroke-width="0.3"/>
  <text x="48" y="10.75" font-family="Arial, sans-serif" font-size="2.5" text-anchor="middle" fill="#000" font-weight="bold" transform="rotate(-90 48 10.75)">21.5"</text>
  
  <!-- Countertop depth (right side, outer) -->
  <line x1="50" y1="0" x2="50" y2="22" stroke="#000" stroke-width="0.3"/>
  <line x1="49.5" y1="0" x2="50.5" y2="0" stroke="#000" stroke-width="0.3"/>
  <line x1="49.5" y1="22" x2="50.5" y2="22" stroke="#000" stroke-width="0.3"/>
  <text x="53" y="11" font-family="Arial, sans-serif" font-size="2.5" text-anchor="middle" fill="#000" font-weight="bold" transform="rotate(-90 53 11)">22"</text>
  
  <!-- Countertop overhang (left side) -->
  <line x1="-2" y1="0" x2="-2" y2="-0.5" stroke="#000" stroke-width="0.25"/>
  <line x1="-2.5" y1="0" x2="-1.5" y2="0" stroke="#000" stroke-width="0.25"/>
  <line x1="-2.5" y1="-0.5" x2="-1.5" y2="-0.5" stroke="#000" stroke-width="0.25"/>
  <text x="-4" y="-0.25" font-family="Arial, sans-serif" font-size="1.5" text-anchor="middle" fill="#000" font-weight="bold" transform="rotate(-90 -4 -0.25)">0.5"</text>
  
  <!-- Backsplash thickness (left side, for back backsplash) -->
  <line x1="-5" y1="0" x2="-5" y2="1.25" stroke="#000" stroke-width="0.25"/>
  <line x1="-5.5" y1="0" x2="-4.5" y2="0" stroke="#000" stroke-width="0.25"/>
  <line x1="-5.5" y1="1.25" x2="-4.5" y2="1.25" stroke="#000" stroke-width="0.25"/>
  <text x="-7" y="0.625" font-family="Arial, sans-serif" font-size="1.5" text-anchor="middle" fill="#000" font-weight="bold" transform="rotate(-90 -7 0.625)">1.25"</text>
  
  <!-- Left side backsplash thickness (bottom, with diagonal line) -->
  <line x1="0" y1="24" x2="1.25" y2="24" stroke="#000" stroke-width="0.25"/>
  <line x1="0" y1="23.5" x2="0" y2="24.5" stroke="#000" stroke-width="0.25"/>
  <line x1="1.25" y1="23.5" x2="1.25" y2="24.5" stroke="#000" stroke-width="0.25"/>
  <line x1="0.625" y1="22" x2="0.625" y2="24" stroke="#000" stroke-width="0.2" stroke-dasharray="1,1"/>
  <text x="0.625" y="26" font-family="Arial, sans-serif" font-size="1.5" text-anchor="middle" fill="#000" font-weight="bold">1.25"</text>
  
  <!-- Large drawers width (bottom, with diagonal lines) -->
  <line x1="2" y1="29" x2="24.5" y2="29" stroke="#000" stroke-width="0.25"/>
  <line x1="2" y1="28.5" x2="2" y2="29.5" stroke="#000" stroke-width="0.25"/>
  <line x1="24.5" y1="28.5" x2="24.5" y2="29.5" stroke="#000" stroke-width="0.25"/>
  <line x1="2" y1="21.5" x2="2" y2="29" stroke="#000" stroke-width="0.2" stroke-dasharray="1,1"/>
  <line x1="24.5" y1="21.5" x2="24.5" y2="29" stroke="#000" stroke-width="0.2" stroke-dasharray="1,1"/>
  <text x="13.25" y="31" font-family="Arial, sans-serif" font-size="2" text-anchor="middle" fill="#000" font-weight="bold">22.5"</text>
  
  <!-- Small drawers width (bottom, with diagonal lines) -->
  <line x1="26.5" y1="29" x2="40" y2="29" stroke="#000" stroke-width="0.25"/>
  <line x1="26.5" y1="28.5" x2="26.5" y2="29.5" stroke="#000" stroke-width="0.25"/>
  <line x1="40" y1="28.5" x2="40" y2="29.5" stroke="#000" stroke-width="0.25"/>
  <line x1="26.5" y1="21.5" x2="26.5" y2="29" stroke="#000" stroke-width="0.2" stroke-dasharray="1,1"/>
  <line x1="40" y1="21.5" x2="40" y2="29" stroke="#000" stroke-width="0.2" stroke-dasharray="1,1"/>
  <text x="33.25" y="31" font-family="Arial, sans-serif" font-size="2" text-anchor="middle" fill="#000" font-weight="bold">13.5"</text>
  
  <!-- Gaps (bottom, with diagonal lines) -->
  <line x1="0" y1="33" x2="2" y2="33" stroke="#000" stroke-width="0.2"/>
  <line x1="0" y1="32.5" x2="0" y2="33.5" stroke="#000" stroke-width="0.2"/>
  <line x1="2" y1="32.5" x2="2" y2="33.5" stroke="#000" stroke-width="0.2"/>
  <line x1="0" y1="21.5" x2="0" y2="33" stroke="#000" stroke-width="0.15" stroke-dasharray="1,1"/>
  <text x="1" y="35" font-family="Arial, sans-serif" font-size="1.5" text-anchor="middle" fill="#000">2"</text>
  
  <line x1="24.5" y1="33" x2="26.5" y2="33" stroke="#000" stroke-width="0.2"/>
  <line x1="24.5" y1="32.5" x2="24.5" y2="33.5" stroke="#000" stroke-width="0.2"/>
  <line x1="26.5" y1="32.5" x2="26.5" y2="33.5" stroke="#000" stroke-width="0.2"/>
  <text x="25.5" y="35" font-family="Arial, sans-serif" font-size="1.5" text-anchor="middle" fill="#000">2"</text>
  
  <line x1="40" y1="33" x2="42" y2="33" stroke="#000" stroke-width="0.2"/>
  <line x1="40" y1="32.5" x2="40" y2="33.5" stroke="#000" stroke-width="0.2"/>
  <line x1="42" y1="32.5" x2="42" y2="33.5" stroke="#000" stroke-width="0.2"/>
  <line x1="42" y1="21.5" x2="42" y2="33" stroke="#000" stroke-width="0.15" stroke-dasharray="1,1"/>
  <text x="41" y="35" font-family="Arial, sans-serif" font-size="1.5" text-anchor="middle" fill="#000">2"</text>
  
  <!-- Sink width (top, with diagonal lines) -->
  <line x1="2.81" y1="-4" x2="23.69" y2="-4" stroke="#000" stroke-width="0.25"/>
  <line x1="2.81" y1="-4.5" x2="2.81" y2="-3.5" stroke="#000" stroke-width="0.25"/>
  <line x1="23.69" y1="-4.5" x2="23.69" y2="-3.5" stroke="#000" stroke-width="0.25"/>
  <line x1="2.81" y1="3.875" x2="2.81" y2="-4" stroke="#000" stroke-width="0.2" stroke-dasharray="1,1"/>
  <line x1="23.69" y1="3.875" x2="23.69" y2="-4" stroke="#000" stroke-width="0.2" stroke-dasharray="1,1"/>
  <text x="13.25" y="-5.5" font-family="Arial, sans-serif" font-size="2" text-anchor="middle" fill="#000" font-weight="bold">20.88"</text>
  
  <!-- Sink depth (left side, with diagonal lines) -->
  <line x1="-7" y1="3.875" x2="-7" y2="18.0625" stroke="#000" stroke-width="0.25"/>
  <line x1="-7.5" y1="3.875" x2="-6.5" y2="3.875" stroke="#000" stroke-width="0.25"/>
  <line x1="-7.5" y1="18.0625" x2="-6.5" y2="18.0625" stroke="#000" stroke-width="0.25"/>
  <line x1="2.81" y1="3.875" x2="-7" y2="3.875" stroke="#000" stroke-width="0.2" stroke-dasharray="1,1"/>
  <line x1="2.81" y1="18.0625" x2="-7" y2="18.0625" stroke="#000" stroke-width="0.2" stroke-dasharray="1,1"/>
  <text x="-9" y="10.96875" font-family="Arial, sans-serif" font-size="2" text-anchor="middle" fill="#000" font-weight="bold" transform="rotate(-90 -9 10.96875)">14 3/16"</text>
  
  <!-- Faucet position from sink back edge (left side, with diagonal lines) -->
  <line x1="0.5" y1="3.875" x2="0.5" y2="6.0" stroke="#000" stroke-width="0.2"/>
  <line x1="0" y1="3.875" x2="1" y2="3.875" stroke="#000" stroke-width="0.2"/>
  <line x1="0" y1="6.0" x2="1" y2="6.0" stroke="#000" stroke-width="0.2"/>
  <line x1="2.81" y1="3.875" x2="0.5" y2="3.875" stroke="#000" stroke-width="0.15" stroke-dasharray="1,1"/>
  <line x1="13.25" y1="6.0" x2="0.5" y2="6.0" stroke="#000" stroke-width="0.15" stroke-dasharray="1,1"/>
  <text x="-0.5" y="4.9375" font-family="Arial, sans-serif" font-size="1.5" text-anchor="middle" fill="#000" font-weight="bold" transform="rotate(-90 -0.5 4.9375)">2 1/8"</text>
  
  <!-- Receptacle width (top, with diagonal line) -->
  <line x1="31.25" y1="2.5" x2="35.25" y2="2.5" stroke="#000" stroke-width="0.2"/>
  <line x1="31.25" y1="2" x2="31.25" y2="3" stroke="#000" stroke-width="0.2"/>
  <line x1="35.25" y1="2" x2="35.25" y2="3" stroke="#000" stroke-width="0.2"/>
  <line x1="33.25" y1="1" x2="33.25" y2="2.5" stroke="#000" stroke-width="0.15" stroke-dasharray="1,1"/>
  <text x="33.25" y="4" font-family="Arial, sans-serif" font-size="1.3" text-anchor="middle" fill="#000" font-weight="bold">4"</text>
  
  <!-- Label -->
  <text x="21" y="38.5" font-family="Arial, sans-serif" font-size="2" text-anchor="middle" fill="#666" font-style="italic">Plan View</text>
  
</svg>

