<svg viewBox="-18 0 75 125" xmlns="http://www.w3.org/2000/svg" style="border: 1px solid #ccc; background: white;">
  <!-- Wall outline (45" wide including filler) -->
  <rect x="-3" y="0" width="45" height="96" 
        fill="none" stroke="#333" stroke-width="0.5"/>
  
  <!-- Left wall indication -->
  <line x1="-3" y1="0" x2="-3" y2="96" stroke="#333" stroke-width="1.5"/>
  <text x="-5" y="48" font-family="Arial, sans-serif" font-size="2" text-anchor="middle" fill="#666" transform="rotate(-90 -5 48)">Wall</text>
  
  <!-- Filler (3" wide, 34.5" tall, left of vanity) -->
  <rect x="-3" y="61.5" width="3" height="34.5" 
        fill="#c8b896" stroke="#666" stroke-width="0.3"/>
  <text x="-1.5" y="78.75" font-family="Arial, sans-serif" font-size="1.5" text-anchor="middle" fill="#555" font-style="italic" transform="rotate(-90 -1.5 78.75)">Filler</text>
  
  <!-- Vanity (42" wide, 34.5" tall) -->
  <rect x="0" y="61.5" width="42" height="34.5" 
        fill="#e8e8e8" stroke="#666" stroke-width="0.3"/>
  
  <!-- Left section (large drawers) - 22.5" wide -->
  <rect x="2" y="61.5" width="22.5" height="34.5" 
        fill="#d0d0d0" stroke="#555" stroke-width="0.25"/>
  
  <!-- Right section (small drawers) - 13.5" wide -->
  <rect x="26.5" y="61.5" width="13.5" height="34.5" 
        fill="#d0d0d0" stroke="#555" stroke-width="0.25"/>
  
  <!-- Mirror (40" wide × 30" tall, 6" gap above backsplash, centered over vanity) -->
  <rect x="1" y="18.25" width="40" height="30" 
        fill="#d0f0ff" stroke="#333" stroke-width="0.4"/>
  <!-- Mirror shine effect -->
  <rect x="2" y="19" width="5" height="10" 
        fill="#ffffff" opacity="0.3" stroke="none"/>
  <text x="21" y="33.5" font-family="Arial, sans-serif" font-size="2.5" text-anchor="middle" fill="#006699" font-weight="bold">MIRROR</text>
  
  <!-- Backsplash (45" wide × 6" tall, extends over filler and vanity) -->
  <rect x="-3" y="54.25" width="45" height="6" 
        fill="#d5e8d4" stroke="#666" stroke-width="0.3"/>
  
  <!-- Left side backsplash (1.25" wide × 6" tall, on left edge) -->
  <rect x="-3" y="54.25" width="1.25" height="6" 
        fill="#d5e8d4" stroke="#666" stroke-width="0.3"/>
  <text x="30" y="57.5" font-family="Arial, sans-serif" font-size="1.5" text-anchor="middle" fill="#555" font-weight="bold">BACKSPLASH</text>
  
  <!-- Receptacle (4" wide × 2" tall, on wall between mirror and backsplash, centered in gap) -->
  <rect x="31.25" y="50.25" width="4" height="2" 
        fill="#f8f8f8" stroke="#333" stroke-width="0.3"/>
  <!-- Receptacle outlets -->
  <ellipse cx="32.25" cy="51.25" rx="0.5" ry="0.3" fill="#333"/>
  <ellipse cx="34.25" cy="51.25" rx="0.5" ry="0.3" fill="#333"/>
  <line x1="32.25" y1="51.25" x2="31.75" y2="51.25" stroke="#333" stroke-width="0.1"/>
  <line x1="34.25" y1="51.25" x2="34.75" y2="51.25" stroke="#333" stroke-width="0.1"/>
  
  <!-- Countertop (45" wide × 1.25" thick, extends over filler) -->
  <rect x="-3" y="60.25" width="45" height="1.25" 
        fill="#f5f5dc" stroke="#666" stroke-width="0.3"/>
  
  <!-- Sink (20.88" wide × 4.75" tall, centered above large drawers, sitting on countertop) -->
  <rect x="2.81" y="55.5" width="20.88" height="4.75" 
        fill="#c0e0ff" stroke="#333" stroke-width="0.3"/>
  <text x="8" y="58" font-family="Arial, sans-serif" font-size="1.5" text-anchor="middle" fill="#004080" font-weight="bold">SINK</text>
  
  <!-- Faucet (7" tall, 2D side profile, mounted on top of sink) -->
  <!-- Faucet base -->
  <rect x="12.5" y="55.3" width="1.5" height="0.2" fill="#999" stroke="#666" stroke-width="0.2"/>
  <!-- Faucet body/neck rising up -->
  <rect x="12.8" y="50.5" width="0.4" height="4.8" fill="#999" stroke="#666" stroke-width="0.2"/>
  <!-- Faucet top/handle assembly -->
  <rect x="12.5" y="48.5" width="1" height="2" fill="#999" stroke="#666" stroke-width="0.2"/>
  <!-- Faucet spout curving down -->
  <path d="M 13.2 52 L 13.2 51 Q 13.2 50.5 13.7 50.5 L 15 50.5 L 15 51 Q 15 51.5 14.8 52 L 14.8 54 Q 14.8 54.5 14.3 54.5 L 13.7 54.5" fill="#999" stroke="#666" stroke-width="0.2"/>
  <!-- Handle indicator -->
  <circle cx="13" cy="49.5" r="0.4" fill="#888" stroke="#666" stroke-width="0.15"/>
  
  <!-- Section labels -->
  <text x="21" y="88" font-family="Arial, sans-serif" font-size="2.5" text-anchor="middle" fill="#333" font-weight="bold">VANITY</text>
  <text x="13.25" y="78.75" font-family="Arial, sans-serif" font-size="2" text-anchor="middle" fill="#333">Large Drawers</text>
  <text x="33.25" y="78.75" font-family="Arial, sans-serif" font-size="2" text-anchor="middle" fill="#333">Small Drawers</text>
  
  <!-- Wall height dimension (left side, leftmost) -->
  <line x1="-16" y1="0" x2="-16" y2="96" stroke="#000" stroke-width="0.3"/>
  <line x1="-15" y1="0" x2="-17" y2="0" stroke="#000" stroke-width="0.3"/>
  <line x1="-15" y1="96" x2="-17" y2="96" stroke="#000" stroke-width="0.3"/>
  <text x="-19" y="48" font-family="Arial, sans-serif" font-size="3" text-anchor="middle" fill="#000" font-weight="bold" transform="rotate(-90 -19 48)">96" (8')</text>
  
  <!-- Backsplash height dimension (left side, with diagonal lines) -->
  <line x1="-11" y1="55.25" x2="-11" y2="59.25" stroke="#000" stroke-width="0.3"/>
  <line x1="-12" y1="55.25" x2="-10" y2="55.25" stroke="#000" stroke-width="0.3"/>
  <line x1="-12" y1="59.25" x2="-10" y2="59.25" stroke="#000" stroke-width="0.3"/>
  <!-- Diagonal lines connecting to backsplash -->
  <line x1="-3" y1="54.25" x2="-11" y2="55.25" stroke="#000" stroke-width="0.2" stroke-dasharray="1,1"/>
  <line x1="-3" y1="60.25" x2="-11" y2="59.25" stroke="#000" stroke-width="0.2" stroke-dasharray="1,1"/>
  <text x="-14" y="57.25" font-family="Arial, sans-serif" font-size="2.2" text-anchor="middle" fill="#000" font-weight="bold" transform="rotate(-90 -14 57.25)">6"</text>
  
  <!-- Left side backsplash width dimension (top, with diagonal line) -->
  <line x1="-3" y1="51" x2="-1.75" y2="51" stroke="#000" stroke-width="0.25"/>
  <line x1="-3" y1="50.5" x2="-3" y2="51.5" stroke="#000" stroke-width="0.25"/>
  <line x1="-1.75" y1="50.5" x2="-1.75" y2="51.5" stroke="#000" stroke-width="0.25"/>
  <!-- Diagonal line connecting to left backsplash -->
  <line x1="-2.375" y1="51" x2="-2.375" y2="54.25" stroke="#000" stroke-width="0.2" stroke-dasharray="1,1"/>
  <text x="-2.375" y="49.5" font-family="Arial, sans-serif" font-size="1.5" text-anchor="middle" fill="#000" font-weight="bold">1.25"</text>
  
  <!-- Faucet height dimension (just right of faucet, with diagonal lines) -->
  <line x1="17" y1="48.5" x2="17" y2="55.5" stroke="#000" stroke-width="0.25"/>
  <line x1="16.5" y1="48.5" x2="17.5" y2="48.5" stroke="#000" stroke-width="0.25"/>
  <line x1="16.5" y1="55.5" x2="17.5" y2="55.5" stroke="#000" stroke-width="0.25"/>
  <!-- Diagonal line connecting to faucet top -->
  <line x1="13.25" y1="48.5" x2="17" y2="48.5" stroke="#000" stroke-width="0.15" stroke-dasharray="1,1"/>
  <!-- Diagonal line connecting to faucet base on sink -->
  <line x1="13.25" y1="55.5" x2="17" y2="55.5" stroke="#000" stroke-width="0.15" stroke-dasharray="1,1"/>
  <text x="19" y="52" font-family="Arial, sans-serif" font-size="2" text-anchor="middle" fill="#000" font-weight="bold" transform="rotate(-90 19 52)">7"</text>
  
  <!-- Mirror height dimension (left side) -->
  <line x1="-6" y1="18.25" x2="-6" y2="48.25" stroke="#000" stroke-width="0.3"/>
  <line x1="-5" y1="18.25" x2="-7" y2="18.25" stroke="#000" stroke-width="0.3"/>
  <line x1="-5" y1="48.25" x2="-7" y2="48.25" stroke="#000" stroke-width="0.3"/>
  <text x="-9" y="33.25" font-family="Arial, sans-serif" font-size="2.5" text-anchor="middle" fill="#000" font-weight="bold" transform="rotate(-90 -9 33.25)">30"</text>
  
  <!-- Mirror width dimension (top) -->
  <line x1="1" y1="15" x2="41" y2="15" stroke="#000" stroke-width="0.3"/>
  <line x1="1" y1="14" x2="1" y2="16" stroke="#000" stroke-width="0.3"/>
  <line x1="41" y1="14" x2="41" y2="16" stroke="#000" stroke-width="0.3"/>
  <text x="21" y="13" font-family="Arial, sans-serif" font-size="2.5" text-anchor="middle" fill="#000" font-weight="bold">40"</text>
  
  <!-- Gap between backsplash and mirror (left side, with diagonal lines) -->
  <line x1="-11" y1="48.5" x2="-11" y2="54" stroke="#000" stroke-width="0.3"/>
  <line x1="-12" y1="48.5" x2="-10" y2="48.5" stroke="#000" stroke-width="0.3"/>
  <line x1="-12" y1="54" x2="-10" y2="54" stroke="#000" stroke-width="0.3"/>
  <!-- Diagonal lines connecting to gap -->
  <line x1="1" y1="48.25" x2="-11" y2="48.5" stroke="#000" stroke-width="0.2" stroke-dasharray="1,1"/>
  <line x1="-3" y1="54.25" x2="-11" y2="54" stroke="#000" stroke-width="0.2" stroke-dasharray="1,1"/>
  <text x="-14" y="51.25" font-family="Arial, sans-serif" font-size="2" text-anchor="middle" fill="#666" transform="rotate(-90 -14 51.25)">6"</text>
  
  <!-- Receptacle dimensions -->
  <!-- Receptacle width (top) -->
  <line x1="31.25" y1="49" x2="35.25" y2="49" stroke="#000" stroke-width="0.3"/>
  <line x1="31.25" y1="48" x2="31.25" y2="50" stroke="#000" stroke-width="0.3"/>
  <line x1="35.25" y1="48" x2="35.25" y2="50" stroke="#000" stroke-width="0.3"/>
  <text x="33.25" y="47" font-family="Arial, sans-serif" font-size="2" text-anchor="middle" fill="#000" font-weight="bold">4"</text>
  
  <!-- Receptacle height (right side) -->
  <line x1="48" y1="50.25" x2="48" y2="52.25" stroke="#000" stroke-width="0.3"/>
  <line x1="47" y1="50.25" x2="49" y2="50.25" stroke="#000" stroke-width="0.3"/>
  <line x1="47" y1="52.25" x2="49" y2="52.25" stroke="#000" stroke-width="0.3"/>
  <text x="53" y="51.25" font-family="Arial, sans-serif" font-size="2" text-anchor="middle" fill="#000" font-weight="bold" transform="rotate(-90 53 51.25)">2"</text>
  
  <!-- Vanity height dimension (right side) -->
  <line x1="48" y1="61.5" x2="48" y2="96" stroke="#000" stroke-width="0.3"/>
  <line x1="47" y1="61.5" x2="49" y2="61.5" stroke="#000" stroke-width="0.3"/>
  <line x1="47" y1="96" x2="49" y2="96" stroke="#000" stroke-width="0.3"/>
  <text x="53" y="78.75" font-family="Arial, sans-serif" font-size="2.5" text-anchor="middle" fill="#000" font-weight="bold" transform="rotate(-90 53 78.75)">34.5"</text>
  
  <!-- Sink height dimension (right side, above countertop thickness) -->
  <line x1="48" y1="55.5" x2="48" y2="60.25" stroke="#000" stroke-width="0.3"/>
  <line x1="47" y1="55.5" x2="49" y2="55.5" stroke="#000" stroke-width="0.3"/>
  <line x1="47" y1="60.25" x2="49" y2="60.25" stroke="#000" stroke-width="0.3"/>
  <text x="53" y="57.875" font-family="Arial, sans-serif" font-size="2.2" text-anchor="middle" fill="#000" font-weight="bold" transform="rotate(-90 53 57.875)">4.75"</text>
  
  <!-- Countertop thickness dimension (right side, lower position with diagonal lines) -->
  <line x1="48" y1="62.5" x2="48" y2="64" stroke="#000" stroke-width="0.3"/>
  <line x1="47" y1="62.5" x2="49" y2="62.5" stroke="#000" stroke-width="0.3"/>
  <line x1="47" y1="64" x2="49" y2="64" stroke="#000" stroke-width="0.3"/>
  <!-- Diagonal lines connecting to countertop -->
  <line x1="42" y1="60.25" x2="48" y2="62.5" stroke="#000" stroke-width="0.2" stroke-dasharray="1,1"/>
  <line x1="42" y1="61.5" x2="48" y2="64" stroke="#000" stroke-width="0.2" stroke-dasharray="1,1"/>
  <text x="53" y="63.25" font-family="Arial, sans-serif" font-size="2.2" text-anchor="middle" fill="#000" font-weight="bold" transform="rotate(-90 53 63.25)">1.25"</text>
  
  <!-- Floor line -->
  <line x1="-3" y1="96" x2="42" y2="96" stroke="#333" stroke-width="0.5"/>
  <text x="48" y="99" font-family="Arial, sans-serif" font-size="2" text-anchor="start" fill="#666">Floor</text>
  
  <!-- Width dimensions below vanity -->
  <!-- Filler width -->
  <line x1="-3" y1="100" x2="0" y2="100" stroke="#666" stroke-width="0.25"/>
  <line x1="-3" y1="99" x2="-3" y2="101" stroke="#666" stroke-width="0.25"/>
  <line x1="0" y1="99" x2="0" y2="101" stroke="#666" stroke-width="0.25"/>
  <text x="-1.5" y="103" font-family="Arial, sans-serif" font-size="2" text-anchor="middle" fill="#666">3"</text>
  
  <!-- Large and small drawers on the same line -->
  <line x1="2" y1="100" x2="24.5" y2="100" stroke="#000" stroke-width="0.3"/>
  <line x1="2" y1="99" x2="2" y2="101" stroke="#000" stroke-width="0.3"/>
  <line x1="24.5" y1="99" x2="24.5" y2="101" stroke="#000" stroke-width="0.3"/>
  <text x="13.25" y="103" font-family="Arial, sans-serif" font-size="2.2" text-anchor="middle" fill="#000" font-weight="bold">22.5"</text>
  
  <line x1="26.5" y1="100" x2="40" y2="100" stroke="#000" stroke-width="0.3"/>
  <line x1="26.5" y1="99" x2="26.5" y2="101" stroke="#000" stroke-width="0.3"/>
  <line x1="40" y1="99" x2="40" y2="101" stroke="#000" stroke-width="0.3"/>
  <text x="33.25" y="103" font-family="Arial, sans-serif" font-size="2.2" text-anchor="middle" fill="#000" font-weight="bold">13.5"</text>
  
  <!-- Gaps -->
  <line x1="0" y1="105" x2="2" y2="105" stroke="#666" stroke-width="0.25"/>
  <line x1="0" y1="104" x2="0" y2="106" stroke="#666" stroke-width="0.25"/>
  <line x1="2" y1="104" x2="2" y2="106" stroke="#666" stroke-width="0.25"/>
  <text x="1" y="108" font-family="Arial, sans-serif" font-size="2" text-anchor="middle" fill="#666">2"</text>
  
  <line x1="24.5" y1="105" x2="26.5" y2="105" stroke="#666" stroke-width="0.25"/>
  <line x1="24.5" y1="104" x2="24.5" y2="106" stroke="#666" stroke-width="0.25"/>
  <line x1="26.5" y1="104" x2="26.5" y2="106" stroke="#666" stroke-width="0.25"/>
  <text x="25.5" y="108" font-family="Arial, sans-serif" font-size="2" text-anchor="middle" fill="#666">2"</text>
  
  <line x1="40" y1="105" x2="42" y2="105" stroke="#666" stroke-width="0.25"/>
  <line x1="40" y1="104" x2="40" y2="106" stroke="#666" stroke-width="0.25"/>
  <line x1="42" y1="104" x2="42" y2="106" stroke="#666" stroke-width="0.25"/>
  <text x="41" y="108" font-family="Arial, sans-serif" font-size="2" text-anchor="middle" fill="#666">2"</text>
  
  <!-- Overall vanity width (42") -->
  <line x1="0" y1="110" x2="42" y2="110" stroke="#000" stroke-width="0.3"/>
  <line x1="0" y1="109" x2="0" y2="111" stroke="#000" stroke-width="0.3"/>
  <line x1="42" y1="109" x2="42" y2="111" stroke="#000" stroke-width="0.3"/>
  <text x="21" y="113" font-family="Arial, sans-serif" font-size="2.5" text-anchor="middle" fill="#000" font-weight="bold">42"</text>
  
  <!-- Overall width including filler (45") -->
  <line x1="-3" y1="115" x2="42" y2="115" stroke="#000" stroke-width="0.3"/>
  <line x1="-3" y1="114" x2="-3" y2="116" stroke="#000" stroke-width="0.3"/>
  <line x1="42" y1="114" x2="42" y2="116" stroke="#000" stroke-width="0.3"/>
  <text x="19.5" y="118" font-family="Arial, sans-serif" font-size="2.5" text-anchor="middle" fill="#000" font-weight="bold">45"</text>
  
  <!-- Sink width dimension (below countertop, over large drawers) -->
  <line x1="2.81" y1="63" x2="23.69" y2="63" stroke="#000" stroke-width="0.3"/>
  <line x1="2.81" y1="62" x2="2.81" y2="64" stroke="#000" stroke-width="0.3"/>
  <line x1="23.69" y1="62" x2="23.69" y2="64" stroke="#000" stroke-width="0.3"/>
  <text x="13.25" y="66" font-family="Arial, sans-serif" font-size="2.2" text-anchor="middle" fill="#000" font-weight="bold">20.88"</text>
  
  <!-- Option label -->
  <text x="19.5" y="120" font-family="Arial, sans-serif" font-size="3" text-anchor="middle" fill="#666" font-style="italic">Front View</text>
  <text x="19.5" y="124" font-family="Arial, sans-serif" font-size="4" text-anchor="middle" fill="#0066cc" font-weight="bold">Option 9</text>
</svg>

